<svg xmlns="http://www.w3.org/2000/svg" data-name="Layer 1" width="842.20873" height="507.52914" viewBox="0 0 842.20873 507.52914" xmlns:xlink="http://www.w3.org/1999/xlink"><path d="M235.29239,557.5035c-22.33764-47.63084,10.93444-97.32266,63.682-75.4382,42.83877-7.15941,22.94478-39.89588,52.70863,30.32933,19.38278,49.64969-39.32454,65.23949-75.76338,47.24858,14.05276,45.853-62.74509,44.73887-45.9642-.45144" transform="translate(-188.93169 -210.32149)" fill="#00bfa6"/><path d="M678.6371,404.10753c12.77016-38.14721,44.40793-69.4599,82.685-81.83541,32.541-10.521,67.68817-7.73795,101.765-4.84267,17.79059,1.51155,37.506,3.96864,49.07666,17.56683,10.79282,12.68413,10.95544,30.98768,10.5639,47.63758q-.79847,33.95463-1.59694,67.90927c-.151,6.42221-.45233,13.30295-4.28526,18.45816-6.02919,8.10916-17.81463,8.49468-27.91256,8.11867q-56.01765-2.08593-112.03531-4.17183c-23.6899-.88213-48.35094-2.01943-69.17032-13.3571s-36.34458-36.18122-29.06284-58.74149" transform="translate(-188.93169 -210.32149)" fill="#00bfa6"/><path d="M484.67655,662.54838A2918.341,2918.341,0,0,1,525.7225,341.15045l5.40522-29.16017-10.62109.78857A565.46331,565.46331,0,0,0,404.16,333.00979c-32.55015,6.93876-54.07622,15.6094-49.79178,53.28567C346.42684,488.21324,340.05944,588.28113,333.26445,690.23c8.47363-75.42041,17.29882-158.38916,25.92284-243.5498,10.48026-108.8753-6.44488-89.72506,102.08938-114.25685,10.05488.139,57.57892-13.87444,54.71207-2.7966C497.19492,435.94007,485.5269,560.11528,484.67655,662.54838Z" transform="translate(-188.93169 -210.32149)"/><path d="M609.6287,670.88627c.79008-151.89608,16.60479-304.64457,40.87972-454.8926-.17374-1.35191,1.89031-4.70581-.87479-3.90467-110.3767,2.30859-122.80769-28.84458-119.40157,98.96808,14.04516-129.42317-11.27154-87.69245,108.92827-89.115C610.80332,360.77132,599.46669,544.48165,609.6287,670.88627Z" transform="translate(-188.93169 -210.32149)"/><path d="M822.49784,677.02543c-13.13428-109.5263-10.99039-220.712.48449-330.39746-26.666-38.54061-135.10826-14.67563-183.40082-3.50248,35.18635-8.19992,151.73517-19.05451,171.92413,7.118C796.698,457.72044,799.93177,572.82887,822.49784,677.02543Z" transform="translate(-188.93169 -210.32149)"/><path d="M500.70487,375.481c-34.93239-8.85471-70.19958-5.138-103.71074,6.32909C429.71171,384.91215,473.75175,382.99272,500.70487,375.481Z" transform="translate(-188.93169 -210.32149)"/><path d="M488.07011,419.90336c-25.6756-11.92842-52.81327-10.48487-78.64059-.68952C432.59484,423.53918,465.66779,425.19525,488.07011,419.90336Z" transform="translate(-188.93169 -210.32149)"/><path d="M477.57011,480.36967c-13.64412-23.5205-51.4418-15.05764-71.9952-5.1446C428.55528,480.0084,456.15227,472.92869,477.57011,480.36967Z" transform="translate(-188.93169 -210.32149)"/><path d="M471.24491,524.89848c-24.19713-12.3174-49.62976-11.89229-74.86627-3.86825C419.37479,527.31059,451.07206,529.71537,471.24491,524.89848Z" transform="translate(-188.93169 -210.32149)"/><path d="M477.38554,575.18754c-27.101-9.88818-54.34349-7.04115-80.52914,3.41937C422.13163,582.625,456.30741,581.94047,477.38554,575.18754Z" transform="translate(-188.93169 -210.32149)"/><path d="M615.09452,255.69243c-13.4017-13.35628-28.82483-13.25814-45.45433-6.52232C582.7537,256.17631,601.87089,259.691,615.09452,255.69243Z" transform="translate(-188.93169 -210.32149)"/><path d="M606.7703,302.05131c-10.7812-16.53773-32.49836-16.975-46.22361-3.96067C575.10276,299.60788,592.217,302.18638,606.7703,302.05131Z" transform="translate(-188.93169 -210.32149)"/><path d="M595.99393,359.69926c-12.61177-11.52815-25.33888-8.98582-38.59075-.18894C568.96171,364.63041,585.25565,365.4727,595.99393,359.69926Z" transform="translate(-188.93169 -210.32149)"/><path d="M585.41972,420.98442c-11.89858-11.56713-23.90609-8.89075-36.49994-.14163C559.79374,425.94536,575.19706,426.76664,585.41972,420.98442Z" transform="translate(-188.93169 -210.32149)"/><path d="M581.35233,464.79057c-10.65551-12.97272-26.32488-9.38214-35.53192,2.65483C557.23789,469.26688,570.43818,469.10613,581.35233,464.79057Z" transform="translate(-188.93169 -210.32149)"/><path d="M576.97147,526.84086c-11.06283-13.99522-26.7292-13.4072-40.69052-4.31537C548.29915,527.33188,564.344,530.0535,576.97147,526.84086Z" transform="translate(-188.93169 -210.32149)"/><path d="M585.43241,581.91459c-14.61045-12.68286-30.56985-11.91035-47.35169-4.35724C552.06034,583.939,572.02323,586.543,585.43241,581.91459Z" transform="translate(-188.93169 -210.32149)"/><path d="M795.118,391.13432c-40.22634-7.18273-79.144-7.72274-119.57141-6.39985C712.3575,397.39294,757.60245,401.33505,795.118,391.13432Z" transform="translate(-188.93169 -210.32149)"/><path d="M784.63554,454.22368c-38.06707-15.03707-79.75529-15.7058-118.84871-6.17624C700.75788,452.532,750.60213,456.61808,784.63554,454.22368Z" transform="translate(-188.93169 -210.32149)"/><path d="M786.71366,511.70463c-41.01377-15.4729-84.89032-18.75985-127.8264-13.9492C698.366,507.18461,752.51933,513.86528,786.71366,511.70463Z" transform="translate(-188.93169 -210.32149)"/><path d="M786.75272,577.43754c-36.99864-20.54613-80.0991-26.60332-121.36072-21.29294C700.97473,564.27029,751.56787,574.69923,786.75272,577.43754Z" transform="translate(-188.93169 -210.32149)"/><path d="M715.99589,649.84965c1.37289-13.55437,2.49986-27.16667,1.74624-40.76806.59961-12.688-2.27894-10.98635-12.8228-7.56209-5.79076,1.41172-12.6431,3.18242-18.32771,4.7756-8.17231.456-10.7185,3.16117-9.28617,11.25255,3.38483,37.60752,2.965,30.92969,10.40956.03716C719.55095,609.31707,703.1772,619.44607,715.99589,649.84965Z" transform="translate(-188.93169 -210.32149)"/><path d="M555.91,654.02739c3.80325-11.70906,6.06521-23.40757,5.71254-35.688-14.9266-3.34121-44.386,9.1716-30.6355,26.81225-1.11947-9.69144,10.27763-13.68909,18.24911-14.23317C553.33751,634.31536,552.25093,648.48359,555.91,654.02739Z" transform="translate(-188.93169 -210.32149)"/><path d="M427.98026,650.01176c2.95419-10.98485,13.92972-36.97228-4.32259-38.939-11.49283,1.75362-36.99474-3.1611-31.9812,14.49,2.636,26.41061,3.85543,21.38815,8.48314-1.072C432.19541,621.29389,422.15822,621.75854,427.98026,650.01176Z" transform="translate(-188.93169 -210.32149)"/><path d="M827.31913,542.60209c1.01128,7.10805,20.02382,23.92474,27.40548,33.90089-2.83966,4.59266-10.42842,8.98-10.31807,16.3114-1.7128,14.7418,14.83656,18.59445,23.91352,12.55853,10.913,26.1845-6.955,39.18593-11.80221,56.8668,13.1002-13.43,29.27781-29.71922,23.62313-53.01285-.12268-17.75808-7.78326-23.4847-22.76241-12.93374-3.62316-3.12177,1.42193-8.12513,3.95207-10.49059C877.10035,567.43611,832.065,552.24986,827.31913,542.60209Z" transform="translate(-188.93169 -210.32149)"/><path d="M937.25858,548.42729c-39.43444,16.566-44.19388,67.64091-29.46687,102.85729C908.32985,616.233,912.32032,575.23977,937.25858,548.42729Z" transform="translate(-188.93169 -210.32149)"/><path d="M934.16288,578.4434c48.67137-19.58967,33.726-70.90833,11.95515-104.07694.56559-10.72838,6.08-22.83112-.05609-33.1335-13.08365-22.39464-38.323-5.27225-56.23881-5.797-53.99733-38.70643-59.17633,18.98193-53.95438,59.2885-24.50713,17.06348-49.617,62.59991-1.58275,65.65334-47.62045-9.69328-14.41412-43.83383,8.17747-60.90619,12.86573-19.90782-14.33578-55.396,16.10566-63.79227,34.54248,3.50708,16.37109,22.46536,64.33838,5.5284,23.655-.84775,10.8393,24.622,13.81907,38.51419C961.12568,509.65956,977.304,555.566,934.16288,578.4434Z" transform="translate(-188.93169 -210.32149)"/><path d="M873.951,469.80375c-12.27763,2.9487-4.7127,6.56307,2.73,10.45394C880.866,477.691,880.46561,473.36186,873.951,469.80375Z" transform="translate(-188.93169 -210.32149)"/><path d="M852.83768,502.28227c-4.90156,11.82883,2.80325,9.75812,11.6283,7.141C864.67753,503.86235,860.323,500.33256,852.83768,502.28227Z" transform="translate(-188.93169 -210.32149)"/><path d="M855.65116,537.502c-7.56706,9.98026.50039,6.03984,7.57235,3.12666C864.91776,536.58842,862.31718,534.80131,855.65116,537.502Z" transform="translate(-188.93169 -210.32149)"/><path d="M918.865,520.28178c-12.37906-3.5457-10.03171,4.007-6.77367,12.889C917.86015,532.68315,921.283,527.74809,918.865,520.28178Z" transform="translate(-188.93169 -210.32149)"/><path d="M906.11893,466.85649c-12.82387,1.09782-7.90235,7.2939-1.67985,14.39459C909.64237,478.75,911.05839,472.94438,906.11893,466.85649Z" transform="translate(-188.93169 -210.32149)"/><path d="M885.29569,505.03813c-12.07329,5.28633-6.70082,11.07657,1.28328,17.59656C891.199,517.94536,891.41,510.60307,885.29569,505.03813Z" transform="translate(-188.93169 -210.32149)"/><path d="M889.451,548.69633c-12.49983,2.32781-5.9021,7.07948,1.23891,12.286C895.243,558.35453,895.46073,553.32524,889.451,548.69633Z" transform="translate(-188.93169 -210.32149)"/><path d="M948.6746,527.50248c-6.98286-10.34269-3.24189-1.25236-.94715,5.149C950.30351,535.5894,951.04862,534.08891,948.6746,527.50248Z" transform="translate(-188.93169 -210.32149)"/><path d="M1031.14042,700.65385c-66.60184-43.23764-147.04922-70.59033-218.6238-20.44672C881.13922,651.7847,943.63149,665.27856,1031.14042,700.65385Z" transform="translate(-188.93169 -210.32149)"/><path d="M209.24589,559.79887c1.01355,7.10832,20.02372,23.92444,27.40646,33.90088-2.83979,4.59259-10.42855,8.98035-10.31808,16.31141-1.71413,14.7405,14.83691,18.5954,23.91255,12.55853,10.91623,26.18236-6.95652,39.188-11.80124,56.8668,13.09886-13.42963,29.27975-29.7194,23.62216-53.01285-.12-17.75783-7.784-23.48425-22.76143-12.93375-3.62346-3.12082,1.42187-8.12551,3.95206-10.49059C259.02689,584.63305,213.99408,569.44681,209.24589,559.79887Z" transform="translate(-188.93169 -210.32149)"/><path d="M319.18632,565.62455c-39.43493,16.565-44.193,67.64048-29.46786,102.8568C290.25818,633.4297,294.24657,592.43644,319.18632,565.62455Z" transform="translate(-188.93169 -210.32149)"/><path d="M316.09061,595.64018c48.67111-19.58988,33.72609-70.90808,11.95516-104.07694.56475-10.7285,6.0803-22.831-.0561-33.1335-13.08421-22.39439-38.3228-5.27206-56.23881-5.797-53.99744-38.70628-59.17667,18.98168-53.95438,59.2885-24.50732,17.06364-49.61731,62.59978-1.58275,65.65334-47.621-9.69368-14.414-43.83321,8.17748-60.9062,12.86372-19.90795-14.33467-55.39632,16.10565-63.79226,34.54232,3.50739,16.3715,22.46514,64.33839,5.5284,23.65544-.84776,10.83868,24.62219,13.81906,38.51419C343.05263,526.8569,359.23223,572.76244,316.09061,595.64018Z" transform="translate(-188.93169 -210.32149)"/><path d="M255.87772,487.00053c-12.27694,2.94884-4.71118,6.56321,2.731,10.45394C262.79374,494.88774,262.39335,490.55864,255.87772,487.00053Z" transform="translate(-188.93169 -210.32149)"/><path d="M234.76444,519.47905c-4.90144,11.82859,2.80447,9.75828,11.62927,7.14143C246.60526,521.05912,242.25077,517.52934,234.76444,519.47905Z" transform="translate(-188.93169 -210.32149)"/><path d="M237.5789,554.69877c-7.56706,9.98027.50039,6.03985,7.57235,3.12666C246.8455,553.7852,244.24491,551.99809,237.5789,554.69877Z" transform="translate(-188.93169 -210.32149)"/><path d="M300.79276,537.47856c-12.37907-3.54566-10.03183,4.00691-6.77465,12.889C299.78788,549.87993,303.21073,544.94536,300.79276,537.47856Z" transform="translate(-188.93169 -210.32149)"/><path d="M288.04569,484.05327c-12.82283,1.09794-7.901,7.29472-1.67887,14.39459C291.56913,495.94682,292.98515,490.14116,288.04569,484.05327Z" transform="translate(-188.93169 -210.32149)"/><path d="M267.22343,522.23491c-12.07329,5.28633-6.70083,11.07657,1.28328,17.59656C273.12675,535.14262,273.33768,527.79985,267.22343,522.23491Z" transform="translate(-188.93169 -210.32149)"/><path d="M271.3787,565.89311c-12.49909,2.3277-5.90381,7.07962,1.23891,12.286C277.17069,575.55131,277.38749,570.522,271.3787,565.89311Z" transform="translate(-188.93169 -210.32149)"/><path d="M330.60233,544.69926c-6.98268-10.34217-3.242-1.2525-.94715,5.14894C332.23124,552.78618,332.97636,551.28569,330.60233,544.69926Z" transform="translate(-188.93169 -210.32149)"/><path d="M413.06815,717.85063c-66.60234-43.23718-147.04878-70.59045-218.6238-20.44673C263.06631,668.98132,325.55981,682.47569,413.06815,717.85063Z" transform="translate(-188.93169 -210.32149)"/><path d="M670.66386,333.8477c31.554-18.78773,19.52436-70.14119-17.13384-72.434C677.88276,275.98344,684.02624,309.87895,670.66386,333.8477Z" transform="translate(-188.93169 -210.32149)"/><path d="M713.659,222.69145c-14.82655,1.80109-16.805,11.57282-14.79149,24.68343C707.46171,242.83891,714.33378,232.84623,713.659,222.69145Z" transform="translate(-188.93169 -210.32149)"/><path d="M761.90018,261.15141c-15.17181-6.27638-24.99085.722-33.089,13.50076C740.575,275.316,754.826,270.32426,761.90018,261.15141Z" transform="translate(-188.93169 -210.32149)"/><path d="M755.93046,314.27739c-7.803-12.34708-16.83273-9.36279-27.002-1.5775C736.33866,318.17387,747.63847,319.59282,755.93046,314.27739Z" transform="translate(-188.93169 -210.32149)"/><path d="M904.67265,275.06791c-4.54555-48.659-52.32017,6.008-74.79408-1.58135-13.74779-9.20574-26.07286,3.93688-29.29178,17.162,4.05019-5.216,8.80377-11.49109,15.16579-12.828C852.00482,310.19782,886.06893,235.1731,904.67265,275.06791Z" transform="translate(-188.93169 -210.32149)"/><path d="M502.55741,259.00151c-4.5435-48.65971-52.32078,6.00817-74.79408-1.58184-13.74612-9.20565-26.07384,3.93734-29.2908,17.16253,4.04886-5.21726,8.80442-11.49052,15.16481-12.82846C449.88865,294.13092,483.95671,219.10639,502.55741,259.00151Z" transform="translate(-188.93169 -210.32149)"/></svg>